<svg width="878" height="877" viewBox="0 0 878 877" fill="none" xmlns="http://www.w3.org/2000/svg">
<path d="M746.812 200.01L746.812 200.012C729.857 266.589 703.841 331.382 665.02 388.239L665.019 388.241C636.507 430.407 601.134 467.688 561.832 499.939L560.674 500.888L562.17 500.825C675.175 496.002 789.581 534.587 876.331 607.343C847.489 630.861 816.597 652.013 782.948 667.981L782.945 667.982C712.819 701.908 634.663 718.107 556.856 718.068L555.502 718.067L556.531 718.948C575.901 735.525 593.981 753.67 609.918 773.603L609.923 773.608C632.959 801.625 650.376 833.677 664.539 866.971C662.877 867.278 661.216 867.587 659.554 867.897C642.536 871.065 625.505 874.235 608.23 875.384L608.226 875.384C537.256 880.647 465.547 863.876 402.087 832.202C329.943 796.032 266.549 739.735 228.204 668.189L228.197 668.176L228.189 668.163C227.415 666.907 226.749 665.52 226.081 664.088C225.999 663.911 225.917 663.734 225.834 663.556C225.251 662.3 224.656 661.019 223.987 659.806C222.461 657.037 220.504 654.533 217.25 653.283C159.587 624.559 111.228 579.057 75.0099 526.092C30.7033 461.071 3.39127 383.767 1.06737 304.915L1.06719 304.911C-0.129676 273.957 4.07173 243.104 10.3374 212.82L10.5414 212.91C27.1967 220.305 43.8517 227.7 59.5351 236.952L59.5367 236.953C97.1301 258.944 130.684 287.772 158.481 321.278L159.375 322.355L159.366 320.956C158.899 243.898 175.002 166.472 208.104 96.8203L208.105 96.8172C224.264 62.2171 245.812 30.4839 269.915 0.958894C342.719 87.6935 381.241 202.131 376.482 315.169L376.419 316.677L377.37 315.505C420.261 262.672 473.042 217.674 533.092 185.472L533.094 185.471C604.595 146.774 684.118 125.416 764.093 112.715L764.794 113.416C759.643 142.462 754.222 171.475 746.812 200.01Z" stroke="#D9C287"/>
</svg>
